<?xml version="1.0" standalone="no"?>
<!DOCTYPE svg PUBLIC "-//W3C//DTD SVG 20010904//EN"
 "http://www.w3.org/TR/2001/REC-SVG-20010904/DTD/svg10.dtd">
<svg version="1.0" xmlns="http://www.w3.org/2000/svg"
 width="315.000000pt" height="292.000000pt" viewBox="0 0 315.000000 292.000000"
 preserveAspectRatio="xMidYMid meet">

<g transform="translate(0.000000,292.000000) scale(0.100000,-0.100000)"
fill="#000000" stroke="none">
<path d="M1295 2904 c-318 -45 -592 -176 -813 -388 -198 -190 -334 -431 -399
-708 -25 -102 -27 -131 -27 -308 0 -176 2 -206 26 -307 66 -278 186 -493 387
-693 203 -202 441 -329 728 -387 130 -26 649 -26 773 0 288 62 523 189 725
391 167 168 261 319 339 544 57 163 70 252 70 452 0 195 -18 303 -75 467 -142
402 -460 720 -862 862 -180 63 -253 73 -562 76 -154 2 -293 1 -310 -1z m454
-234 c19 -5 53 -22 75 -36 36 -24 38 -28 21 -34 -19 -7 -19 -7 2 -14 11 -4 24
-14 27 -22 4 -10 2 -13 -7 -8 -6 4 -3 -2 7 -14 16 -18 16 -22 4 -22 -9 0 -21
-6 -27 -14 -10 -12 -21 -10 -69 16 -48 25 -65 29 -107 25 -28 -3 -66 -12 -85
-21 -19 -9 -26 -13 -15 -10 11 4 43 9 71 11 l51 5 17 -41 c16 -41 16 -43 -8
-74 -51 -68 -69 -119 -74 -205 -6 -101 11 -151 68 -207 22 -21 41 -37 43 -34
2 2 11 35 20 73 10 38 24 77 32 86 8 9 12 27 10 40 -3 14 -3 19 1 13 3 -7 19
-13 34 -13 29 0 53 -21 32 -28 -7 -2 -12 -22 -12 -46 0 -23 -6 -51 -14 -62
-11 -16 -12 -28 -3 -61 9 -33 7 -49 -6 -84 -34 -88 -48 -89 -102 -6 -16 25
-33 46 -38 46 -4 1 -13 -10 -19 -24 -14 -31 -24 -32 -32 -1 -3 13 -24 48 -46
77 -45 61 -46 61 -25 120 25 70 23 149 -5 209 -20 44 -27 51 -49 48 -34 -4
-51 -40 -51 -106 0 -51 -55 -212 -72 -212 -5 0 -8 21 -8 48 0 26 -11 90 -25
142 -56 214 -18 337 126 411 72 36 187 50 258 29z m107 -304 c14 -11 16 -18 8
-26 -8 -8 -14 -9 -18 -1 -4 6 -24 11 -44 11 -35 1 -36 2 -18 15 25 19 47 19
72 1z m-407 -382 c110 -60 156 -91 210 -145 42 -42 101 -124 101 -140 0 -5
-33 17 -72 47 -87 65 -181 115 -263 140 -33 10 -63 23 -67 29 -10 13 -10 115
-1 115 3 0 45 -21 92 -46z m-336 -214 c145 0 167 -2 167 -16 0 -14 -52 -15
-519 -12 -286 2 -522 6 -526 10 -4 4 -4 12 1 19 5 9 86 11 358 6 193 -4 426
-7 519 -7z m1604 -10 c254 0 293 -2 293 -15 0 -13 -64 -15 -520 -15 l-520 0 0
22 0 21 227 -6 c124 -4 358 -7 520 -7z m-2070 -119 c49 -24 53 -34 53 -117 l0
-64 -53 0 c-41 0 -57 5 -70 21 -10 11 -25 19 -34 17 -31 -6 -23 -24 21 -46 58
-27 120 -84 136 -122 18 -44 9 -153 -16 -187 -48 -65 -179 -86 -307 -49 l-57
17 0 74 0 75 65 0 c52 0 69 -4 86 -21 11 -11 27 -18 36 -15 28 11 8 40 -52 74
-109 61 -135 98 -135 192 0 62 18 118 46 141 53 44 205 49 281 10z m599 9
l131 0 2 -66 c1 -36 -2 -71 -6 -77 -5 -7 -4 -31 3 -57 l12 -45 12 30 c7 17 11
70 11 123 l-2 92 86 0 85 0 0 -71 c0 -51 -4 -75 -14 -83 -8 -6 -38 -61 -65
-122 -51 -111 -64 -174 -37 -174 20 0 28 -28 20 -77 l-6 -43 -114 0 -114 0 0
60 c0 45 4 60 14 60 8 0 17 15 20 33 5 27 -4 56 -48 153 -54 118 -78 145 -84
92 -3 -26 -7 -28 -47 -28 -39 0 -44 3 -54 30 -22 65 -31 31 -31 -121 0 -142 1
-151 20 -156 17 -5 20 -14 20 -64 l0 -59 -130 0 -130 0 0 61 c0 51 3 62 18 66
17 4 20 20 25 145 6 131 -1 202 -13 133 -5 -28 -9 -30 -53 -33 -37 -2 -47 0
-47 12 0 9 -4 16 -10 16 -6 0 -10 37 -10 91 l0 91 203 -6 c111 -3 261 -6 333
-6z m1559 -1 c33 -6 72 -17 87 -25 26 -14 28 -19 28 -80 0 -57 -3 -67 -20 -71
-11 -3 -20 -9 -20 -14 0 -5 -24 -9 -52 -9 l-53 -1 39 -19 c83 -42 108 -84 108
-181 0 -87 -23 -135 -78 -163 -32 -17 -56 -21 -134 -20 -54 0 -112 7 -135 15
l-40 14 -3 69 c-2 49 1 72 10 77 7 5 41 9 74 9 53 0 62 -3 67 -20 6 -23 37
-28 37 -6 0 8 -33 32 -72 53 -43 23 -82 52 -94 71 -44 64 -39 163 11 227 34
46 62 64 116 74 61 12 59 12 124 0z m-955 -51 c0 -77 -8 -98 -36 -98 l-24 0 0
-150 c0 -143 1 -150 20 -150 13 0 20 7 20 19 0 44 10 51 71 51 l59 0 0 -95 0
-95 -185 0 -185 0 0 60 c0 45 4 60 14 60 22 0 26 24 26 165 0 124 -1 133 -20
138 -16 4 -20 14 -20 45 0 22 3 54 6 71 l7 31 123 0 124 0 0 -52z m340 37 c0
-8 5 -15 10 -15 6 0 10 7 10 15 0 12 18 15 100 15 94 0 101 -1 109 -22 l8 -22
6 23 c5 19 11 22 44 19 37 -3 38 -4 41 -45 3 -44 -15 -91 -51 -130 -32 -35
-51 -30 -43 11 5 25 3 35 -9 39 -26 11 -35 -28 -35 -160 0 -178 -21 -242 -93
-280 -42 -22 -160 -22 -202 -1 -78 41 -95 90 -95 281 0 115 -2 137 -15 137
-11 0 -15 12 -15 53 0 100 -3 97 121 97 90 0 109 -3 109 -15z m638 -631 c141
-5 172 -9 172 -21 0 -12 -119 -14 -923 -8 -1527 9 -1847 15 -1847 32 0 13 151
14 1213 9 666 -4 1290 -9 1385 -12z m-2136 -96 c-5 -19 -6 -19 -17 -4 -7 9
-20 16 -29 16 -20 0 -20 9 0 39 l16 23 18 -27 c10 -15 15 -36 12 -47z m1944
41 c4 -7 9 -25 10 -42 4 -30 4 -30 -16 -12 -32 29 -36 8 -5 -25 34 -35 26 -53
-10 -20 -29 28 -35 58 -17 88 16 24 27 28 38 11z m-1731 -43 c13 -9 16 -20 12
-36 -3 -13 -1 -30 5 -37 8 -10 8 -20 0 -38 -9 -20 -19 -25 -47 -25 l-35 0 0
75 c0 72 1 75 23 75 13 0 31 -6 42 -14z m-238 -18 c13 -12 23 -28 23 -37 0
-10 -9 -6 -30 14 -29 28 -38 45 -23 45 4 0 17 -10 30 -22z m447 -45 c19 -60
16 -98 -5 -60 -13 22 -48 22 -65 0 -23 -32 -24 -8 -2 60 28 85 45 84 72 0z
m197 51 c10 -12 10 -22 1 -47 -8 -21 -8 -35 -2 -41 6 -6 10 -16 10 -23 0 -22
-20 -14 -32 12 -6 14 -15 25 -20 25 -4 0 -8 -11 -8 -25 0 -16 -6 -25 -15 -25
-12 0 -15 14 -15 70 l0 70 34 0 c18 0 39 -7 47 -16z m195 -19 c1 -16 5 -38 8
-47 13 -30 -11 -58 -49 -58 l-35 0 0 71 0 70 38 -3 c33 -3 37 -6 38 -33z m194
26 c0 -5 -12 -11 -27 -13 -34 -4 -38 -32 -5 -36 12 -2 22 -7 22 -12 0 -5 -10
-10 -22 -12 -33 -4 -29 -32 5 -36 42 -5 32 -22 -13 -22 l-40 0 0 70 0 70 40 0
c22 0 40 -4 40 -9z m189 -62 c12 -39 20 -73 18 -76 -9 -8 -27 7 -27 23 0 22
-48 18 -55 -6 -7 -22 -25 -27 -25 -7 0 29 43 137 54 137 7 0 22 -32 35 -71z
m196 55 c11 -11 14 -24 10 -38 -10 -28 -10 -57 -1 -78 14 -31 -13 -20 -29 12
-9 17 -20 30 -25 30 -6 0 -10 -13 -10 -30 0 -16 -4 -30 -10 -30 -6 0 -10 32
-10 75 l0 75 29 0 c16 0 37 -7 46 -16z m143 -56 c-2 -46 -7 -73 -15 -76 -10
-3 -13 15 -13 66 0 38 3 72 7 75 18 18 24 1 21 -65z m182 16 c33 -95 32 -94
16 -94 -9 0 -16 6 -16 14 0 16 -34 31 -50 21 -5 -3 -10 -13 -10 -21 0 -8 -4
-14 -10 -14 -15 0 -12 19 11 89 12 34 26 60 32 58 6 -2 18 -25 27 -53z m-1741
-20 c31 -40 25 -52 -9 -19 -16 16 -30 32 -30 37 0 16 19 7 39 -18z m1977 -52
c-9 -9 -56 40 -56 57 0 11 11 5 31 -17 17 -19 28 -36 25 -40z m-1953 -42 c3
-10 -3 -30 -12 -44 -17 -25 -18 -26 -34 -8 -16 18 -20 62 -5 62 4 0 8 -4 8
-10 0 -5 8 -10 17 -10 13 0 11 6 -10 28 -15 15 -27 34 -27 42 0 18 57 -36 63
-60z m1953 -8 c-9 -9 -56 40 -56 57 0 11 11 5 31 -17 17 -19 28 -36 25 -40z
m-8 -24 c16 8 11 -16 -6 -32 -18 -16 -20 -15 -36 8 -8 14 -13 32 -10 41 6 14
9 14 26 -2 11 -10 23 -17 26 -15z m-638 -7 c0 -5 -70 -53 -156 -107 l-156 -98
43 -22 c38 -19 46 -20 64 -8 31 22 64 17 96 -15 52 -53 29 -141 -37 -141 -34
0 -84 50 -84 84 0 32 -30 46 -108 51 -29 1 -60 9 -70 16 -15 12 -16 12 -5 -2
11 -13 3 -18 -62 -33 -62 -15 -75 -21 -75 -37 0 -26 -44 -69 -70 -69 -12 0
-31 11 -43 24 -13 14 -37 26 -56 28 -22 2 -39 11 -50 28 -15 23 -15 24 4 16
52 -22 74 -19 92 13 26 45 79 58 112 26 12 -12 21 -10 61 10 26 13 49 23 51
22 20 -10 -28 26 -144 108 -76 54 -136 99 -133 102 2 2 84 -36 182 -85 118
-59 182 -86 189 -80 7 7 331 170 353 177 1 1 2 -3 2 -8z"/>
<path d="M1796 2054 c-17 -17 -20 -27 -9 -37 3 -4 12 2 20 13 8 11 21 20 29
20 8 0 12 5 9 10 -9 15 -31 12 -49 -6z"/>
<path d="M2735 1470 c3 -5 10 -10 16 -10 5 0 9 5 9 10 0 6 -7 10 -16 10 -8 0
-12 -4 -9 -10z"/>
<path d="M2172 1368 c3 -146 5 -163 21 -166 16 -3 17 9 17 147 0 94 -4 151
-10 151 -5 0 -10 7 -10 15 0 8 -5 15 -10 15 -7 0 -10 -56 -8 -162z"/>
<path d="M863 884 c-7 -19 2 -28 22 -21 19 8 19 23 0 31 -9 3 -18 -1 -22 -10z"/>
<path d="M860 815 c0 -16 6 -25 15 -25 21 0 31 30 14 41 -23 14 -29 11 -29
-16z"/>
<path d="M1070 873 c0 -6 -3 -18 -6 -27 -4 -11 -1 -16 10 -16 9 0 16 6 16 13
0 16 -20 46 -20 30z"/>
<path d="M1260 870 c0 -11 7 -20 15 -20 8 0 15 9 15 20 0 11 -7 20 -15 20 -8
0 -15 -9 -15 -20z"/>
<path d="M1450 870 c0 -22 7 -25 29 -11 16 10 6 31 -15 31 -8 0 -14 -9 -14
-20z"/>
<path d="M1450 810 c0 -13 7 -20 20 -20 13 0 20 7 20 20 0 13 -7 20 -20 20
-13 0 -20 -7 -20 -20z"/>
<path d="M1846 855 c-10 -26 -7 -35 9 -35 17 0 19 18 6 38 -7 11 -10 10 -15
-3z"/>
<path d="M2033 874 c-7 -19 11 -39 26 -30 16 10 13 33 -4 40 -9 3 -18 -1 -22
-10z"/>
<path d="M2375 847 c-8 -19 -2 -31 13 -26 5 2 6 13 2 24 -7 19 -8 19 -15 2z"/>
<path d="M1650 516 c0 -2 7 -7 16 -10 8 -3 12 -2 9 4 -6 10 -25 14 -25 6z"/>
<path d="M1620 486 c0 -9 5 -16 10 -16 6 0 10 4 10 9 0 6 -4 13 -10 16 -5 3
-10 -1 -10 -9z"/>
<path d="M1357 432 c-21 -23 -22 -56 -2 -72 21 -17 47 -9 64 22 14 24 14 28
-3 47 -23 26 -38 26 -59 3z"/>
<path d="M1802 438 c-19 -19 -14 -53 11 -76 29 -27 63 -28 77 -3 26 50 -49
118 -88 79z"/>
</g>
</svg>
